<svg width="24" height="24" viewBox="0 0 24 24" fill="none" xmlns="http://www.w3.org/2000/svg">
<g clip-path="url(#clip0_2583_1308)">
<path fill-rule="evenodd" clip-rule="evenodd" d="M6.37124 4.31479C7.86926 2.83176 9.89206 1.99989 12 2C14.1079 1.99989 16.1307 2.83176 17.6288 4.31479C19.1268 5.79782 19.9789 7.81216 20 9.92C20 15.4 13 21.5 12.65 21.76C12.4689 21.9149 12.2384 22.0001 12 22.0001C11.7616 22.0001 11.5311 21.9149 11.35 21.76L11.3484 21.7586C11.0253 21.4786 4 15.3904 4 9.92C4.02108 7.81216 4.87323 5.79782 6.37124 4.31479ZM10.0555 6.58998C10.6311 6.20539 11.3078 6.00012 12 6.00012C12.9283 6.00012 13.8185 6.36887 14.4749 7.02525C15.1313 7.68163 15.5 8.57186 15.5 9.50012C15.5 10.1924 15.2947 10.869 14.9101 11.4446C14.5256 12.0202 13.9789 12.4688 13.3394 12.7337C12.6999 12.9986 11.9961 13.0679 11.3172 12.9329C10.6383 12.7978 10.0146 12.4645 9.52513 11.975C9.03564 11.4855 8.7023 10.8619 8.56725 10.1829C8.4322 9.504 8.50152 8.80027 8.76642 8.16073C9.03133 7.52119 9.47993 6.97456 10.0555 6.58998Z" fill="#111111"/>
</g>
<defs>
<clipPath id="clip0_2583_1308">
<rect width="24" height="24" fill="white"/>
</clipPath>
</defs>
</svg>
