<svg width="24" height="24" viewBox="0 0 24 24" fill="none" xmlns="http://www.w3.org/2000/svg">
<path fill-rule="evenodd" clip-rule="evenodd" d="M5 4H19C19.7956 4 20.5587 4.31607 21.1213 4.87868C21.6839 5.44129 22 6.20435 22 7V17C22 17.7957 21.6839 18.5587 21.1213 19.1213C20.5587 19.6839 19.7956 20 19 20H5C4.20435 20 3.44129 19.6839 2.87868 19.1213C2.31607 18.5587 2 17.7957 2 17V7C2 6.20435 2.31607 5.44129 2.87868 4.87868C3.44129 4.31607 4.20435 4 5 4ZM18.809 9.32947C19.4055 8.88211 19.5264 8.03593 19.079 7.43947C18.6316 6.843 17.7855 6.72213 17.189 7.16949L11.999 11.0621L6.81172 7.16957C6.21536 6.72207 5.36915 6.84274 4.92165 7.4391C4.47415 8.03545 4.59482 8.88167 5.19117 9.32917L11.1885 13.8295C11.6685 14.1897 12.3287 14.1898 12.8088 13.8297L18.809 9.32947Z" fill="#111111"/>
</svg>
